<svg xmlns="http://www.w3.org/2000/svg" width="23.553" height="23.553" viewBox="0 0 23.553 23.553">
  <g id="Group_418" data-name="Group 418" transform="translate(0.5 0.5)">
    <g id="Layer_2_00000082360873273230366090000011153831625013772987_" transform="translate(0)">
      <path id="Path_1015" data-name="Path 1015" d="M22.553,82.085V87.33a2.883,2.883,0,0,1-2.881,2.885H16.259V88.379a.787.787,0,1,0-1.573,0v1.836H7.867V88.379a.787.787,0,1,0-1.573,0v1.836H2.885A2.883,2.883,0,0,1,0,87.334V82.085A2.883,2.883,0,0,1,2.88,79.2H19.669a2.883,2.883,0,0,1,2.885,2.881Z" transform="translate(0 -76.053)" fill="none" stroke="#fff" stroke-width="1"/>
      <path id="Path_1016" data-name="Path 1016" d="M143.277,4.72h-10.49A.787.787,0,0,1,132,3.934v-2.1A1.838,1.838,0,0,1,133.836,0h8.392a1.838,1.838,0,0,1,1.836,1.836v2.1A.787.787,0,0,1,143.277,4.72Zm-9.7-1.573h8.917V1.836a.262.262,0,0,0-.262-.262h-8.392a.262.262,0,0,0-.262.262Z" transform="translate(-126.755)" fill="none" stroke="#fff" stroke-width="1"/>
      <path id="Path_1017" data-name="Path 1017" d="M46.855,371.448v4.909a2.883,2.883,0,0,1-2.881,2.885H29.285a2.883,2.883,0,0,1-2.885-2.88v-4.914a3.992,3.992,0,0,0,1.836.451h3.409v.262a.787.787,0,1,0,1.573,0V371.9h6.818v.262a.787.787,0,1,0,1.573,0V371.9H45.02A3.992,3.992,0,0,0,46.855,371.448Z" transform="translate(-25.351 -356.689)" fill="none" stroke="#fff" stroke-width="1"/>
    </g>
  </g>
</svg>
