<svg xmlns="http://www.w3.org/2000/svg" width="20.798" height="25.053" viewBox="0 0 20.798 25.053">
  <g id="Group_508" data-name="Group 508" transform="translate(-43.543 0)">
    <g id="Group_499" data-name="Group 499" transform="translate(43.543 5.631)">
      <g id="Group_498" data-name="Group 498" transform="translate(0)">
        <path id="Path_1097" data-name="Path 1097" d="M64.253,128.127c-.625-3.735-2.877-10.632-7.363-12.795a.782.782,0,1,0-.679,1.408c3.917,1.889,5.964,8.442,6.5,11.645a4.336,4.336,0,0,1-.9,3.542,3.137,3.137,0,0,1-2.352,1.186H48.425a3.14,3.14,0,0,1-2.354-1.188,4.336,4.336,0,0,1-.9-3.539c.577-3.428,2.589-9.734,6.473-11.633a.782.782,0,0,0-.687-1.4c-4.165,2.036-6.55,8.156-7.328,12.778a5.891,5.891,0,0,0,1.244,4.807,4.692,4.692,0,0,0,3.548,1.742H59.461a4.691,4.691,0,0,0,3.544-1.739A5.9,5.9,0,0,0,64.253,128.127Z" transform="translate(-43.543 -115.254)" fill="#79b700"/>
      </g>
    </g>
    <g id="Group_501" data-name="Group 501" transform="translate(49.812 0)">
      <g id="Group_500" data-name="Group 500" transform="translate(0 0)">
        <path id="Path_1098" data-name="Path 1098" d="M179.8.34a1.233,1.233,0,0,0-1.248-.277s-1.537.49-2.05.639a2.359,2.359,0,0,1-1.014,0c-.521-.148-2.071-.639-2.111-.652a1.21,1.21,0,0,0-1.207.288,1.2,1.2,0,0,0-.26,1.2l1.061,3.937a.782.782,0,0,0,1.51-.406l-.893-3.314c.5.158,1.163.363,1.471.45a3.867,3.867,0,0,0,1.876,0c.3-.088.956-.292,1.445-.446l-.893,3.311a.781.781,0,0,0,.552.958.8.8,0,0,0,.2.027A.784.784,0,0,0,179,5.475l1.057-3.922A1.208,1.208,0,0,0,179.8.34Z" transform="translate(-171.852 0)" fill="#79b700"/>
      </g>
    </g>
    <g id="Group_503" data-name="Group 503" transform="translate(50.817 5.511)">
      <g id="Group_502" data-name="Group 502">
        <path id="Path_1099" data-name="Path 1099" d="M197.887,112.8H193.2a.782.782,0,1,0,0,1.563h4.69a.782.782,0,1,0,0-1.563Z" transform="translate(-192.415 -112.796)" fill="#79b700"/>
      </g>
    </g>
    <g id="Group_505" data-name="Group 505" transform="translate(50.817 11.764)">
      <g id="Group_504" data-name="Group 504" transform="translate(0)">
        <path id="Path_1100" data-name="Path 1100" d="M196.317,243.923h-1.551a.782.782,0,0,1,0-1.563h3.12a.782.782,0,0,0,0-1.563h-3.12a2.345,2.345,0,0,0,0,4.69h1.551a.782.782,0,0,1,0,1.563H193.2a.782.782,0,0,0,0,1.563h3.12a2.345,2.345,0,0,0,0-4.69Z" transform="translate(-192.415 -240.796)" fill="#79b700"/>
      </g>
    </g>
    <g id="Group_507" data-name="Group 507" transform="translate(53.162 11.764)">
      <g id="Group_506" data-name="Group 506" transform="translate(0)">
        <path id="Path_1101" data-name="Path 1101" d="M241.2,240.8a.781.781,0,0,0-.782.782v6.253a.782.782,0,0,0,1.563,0v-6.253A.781.781,0,0,0,241.2,240.8Z" transform="translate(-240.415 -240.796)" fill="#79b700"/>
      </g>
    </g>
  </g>
</svg>
