<svg id="Layer_2_00000137843987331469612250000003026467428492102033_" xmlns="http://www.w3.org/2000/svg" width="30.089" height="30.098" viewBox="0 0 30.089 30.098">
  <g id="menu" transform="translate(0 0)">
    <path id="Path_1" data-name="Path 1" d="M7.125,14.549c-3.257.024-6.831.441-7.1-3.88.012-1.264,0-2.51,0-3.768C.1,5.02-.411,2.722,1.117,1.293A3.751,3.751,0,0,1,3.786.206C5.355.2,6.89.2,8.347.2h2.316a3.742,3.742,0,0,1,3.68,3.692c.041,2.428.041,4.685,0,6.889a3.765,3.765,0,0,1-3.792,3.745C9.4,14.543,8.247,14.549,7.125,14.549Zm-.035-11.3c-1.1,0-2.122,0-3.116.006-.629,0-.894.276-.894.905-.006,2.057-.006,4.227,0,6.431a.722.722,0,0,0,.823.829q3.3.009,6.6,0a.676.676,0,0,0,.752-.758c.006-1.428,0-2.839,0-4.256.006-4.127.406-2.98-4.162-3.157Z" transform="translate(0 -0.187)" fill="#707070"/>
    <path id="Path_2" data-name="Path 2" d="M274.707,14.337c-1.129,0-2.257-.006-3.351-.024a3.793,3.793,0,0,1-3.809-3.774v-.047c-.029-2.392-.029-4.6,0-6.731A3.766,3.766,0,0,1,271.3-.012h.047c2.251-.018,4.5-.018,6.848,0a3.76,3.76,0,0,1,3.674,3.686c.012,1.311,0,2.6,0,3.9-.065,1.881.406,4.215-1.1,5.637C279.239,14.819,276.694,14.214,274.707,14.337Zm1.975-3.116c.705-.094,2.122.364,2.134-.77.012-1.987.012-4.156,0-6.631a.733.733,0,0,0-.782-.776q-3.307-.018-6.59,0a.722.722,0,0,0-.8.823v6.554c0,.553.247.8.8.8C273.3,11.216,274.842,11.216,276.682,11.222Z" transform="translate(-251.799 0.025)" fill="#707070"/>
    <path id="Path_3" data-name="Path 3" d="M10.557,281.857c-1.764-.041-3.668.006-5.455-.006-1.4.065-2.963-.012-3.962-1.1a4.441,4.441,0,0,1-1.1-3.609c-.006-1.934-.006-3.933.012-5.9a3.71,3.71,0,0,1,2.763-3.574,29.055,29.055,0,0,1,4.638-.159c.982,0,1.957,0,2.939.006,4.068.212,4.121,3.333,3.986,6.572,0,1.246-.006,2.539.006,3.809A3.869,3.869,0,0,1,10.557,281.857Zm-3.3-11.239H3.921a.72.72,0,0,0-.823.758c-.018,2.175-.018,4.4,0,6.631a.744.744,0,0,0,.811.788c2.163.006,4.338.006,6.507,0,.582,0,.841-.265.846-.858v-2.251c-.006-1.423.006-2.869,0-4.3a.677.677,0,0,0-.758-.764C9.423,270.617,8.341,270.617,7.254,270.617Z" transform="translate(-0.023 -251.77)" fill="#707070"/>
    <path id="Path_4" data-name="Path 4" d="M275.2,282.354c-6.278.035-9.594-7.795-5.067-12.221a7.163,7.163,0,1,1,5.067,12.221Zm0-11.239c-5.408.153-5.349,7.995-.029,8.171C280.594,279.115,280.659,271.28,275.2,271.115Z" transform="translate(-252.284 -252.267)" fill="#707070"/>
  </g>
</svg>
