<svg xmlns="http://www.w3.org/2000/svg" width="24.39" height="20.745" viewBox="0 0 24.39 20.745">
  <g id="Group_402" data-name="Group 402" transform="translate(-1.2 -7.54)">
    <path id="Path_974" data-name="Path 974" d="M24.194,7.54H10.841A1.383,1.383,0,0,0,9.459,8.923v5.194H2.583A1.385,1.385,0,0,0,1.2,15.5v8.772a1.385,1.385,0,0,0,1.383,1.383H5.221l-.065,2.157a.47.47,0,0,0,.228.418.543.543,0,0,0,.478,0l4.656-2.586h5.526a1.383,1.383,0,0,0,1.383-1.383V20.134h.8l3.684,2.6a.543.543,0,0,0,.492.033.467.467,0,0,0,.272-.421V20.134h1.535a1.383,1.383,0,0,0,1.383-1.383V8.923a1.383,1.383,0,0,0-1.4-1.383ZM16.476,24.272a.432.432,0,0,1-.432.432H10.382a.486.486,0,0,0-.231.06L6.123,27l.054-1.809a.467.467,0,0,0-.141-.345.475.475,0,0,0-.342-.144H2.583a.432.432,0,0,1-.432-.432V15.5a.435.435,0,0,1,.432-.432H9.459v3.684a1.383,1.383,0,0,0,1.383,1.383h5.634Zm8.15-5.52a.432.432,0,0,1-.432.432h-2.01a.475.475,0,0,0-.475.475v1.766L18.652,19.27a.475.475,0,0,0-.272-.087H10.841a.432.432,0,0,1-.432-.432V8.923a.432.432,0,0,1,.432-.443H24.194a.432.432,0,0,1,.432.432Z" transform="translate(0 0)" fill="#91c42f"/>
    <path id="Path_975" data-name="Path 975" d="M45.126,27.37a.986.986,0,1,0,.986.986A.986.986,0,0,0,45.126,27.37Z" transform="translate(-31.275 -14.443)" fill="#91c42f"/>
    <path id="Path_976" data-name="Path 976" d="M59.609,27.37a.983.983,0,1,0,.7.289.986.986,0,0,0-.7-.289Z" transform="translate(-41.821 -14.443)" fill="#91c42f"/>
    <path id="Path_977" data-name="Path 977" d="M74.1,27.37a.983.983,0,1,0,.7.289.986.986,0,0,0-.7-.289Z" transform="translate(-52.375 -14.443)" fill="#91c42f"/>
  </g>
</svg>
