<svg xmlns="http://www.w3.org/2000/svg" width="25.41" height="22.353" viewBox="0 0 25.41 22.353">
  <g id="Group_497" data-name="Group 497" transform="translate(0 -36.807)">
    <g id="Group_496" data-name="Group 496" transform="translate(0 36.807)">
      <g id="Group_495" data-name="Group 495" transform="translate(0 0)">
        <path id="Path_1096" data-name="Path 1096" d="M23.55,42.863l-1-4.261a2.3,2.3,0,0,0-2.74-1.74L1.8,40.86A2.3,2.3,0,0,0,.055,43.6L2.364,54.1v2.763a2.3,2.3,0,0,0,2.3,2.3H23.113a2.3,2.3,0,0,0,2.3-2.3V45.118A2.3,2.3,0,0,0,23.55,42.863Zm-.438,1.44a.816.816,0,0,1,.815.815v1.976H3.847V45.118a.816.816,0,0,1,.815-.815H23.113Zm.815,5.946H3.847V48.576H23.928v1.673ZM2.364,45.118V47.2L1.5,43.28a.816.816,0,0,1,.619-.972l18.012-4a.816.816,0,0,1,.972.619l0,.008.91,3.884H4.662A2.3,2.3,0,0,0,2.364,45.118ZM23.928,56.863a.816.816,0,0,1-.815.815H4.662a.816.816,0,0,1-.815-.815V51.731H23.928v5.131Z" transform="translate(0 -36.807)" fill="#79b700"/>
      </g>
    </g>
  </g>
</svg>
