<svg xmlns="http://www.w3.org/2000/svg" width="25.067" height="25.067" viewBox="0 0 25.067 25.067">
  <g id="Group_417" data-name="Group 417" transform="translate(0 0)">
    <path id="Path_1005" data-name="Path 1005" d="M24.992,12.983,21.951,1.633a2.206,2.206,0,0,0-2.7-1.558L3.173,4.384a2.206,2.206,0,0,0-1.558,2.7l.491,1.831A2.206,2.206,0,0,0,0,11.114v11.75a2.206,2.206,0,0,0,2.2,2.2H18.849a2.206,2.206,0,0,0,2.2-2.2V16.32l2.381-.638a2.206,2.206,0,0,0,1.558-2.7Zm-3.636-7.9.38,1.419-8.974,2.4H7.087ZM3.554,5.8,19.633,1.494a.735.735,0,0,1,.9.519l.444,1.655L3.478,8.357,3.034,6.7a.735.735,0,0,1,.519-.9Zm16.03,17.062a.735.735,0,0,1-.734.734H2.2a.735.735,0,0,1-.734-.734V11.114A.735.735,0,0,1,2.2,10.38H18.849a.735.735,0,0,1,.734.734Zm3.47-8.6-2,.536V11.114a2.206,2.206,0,0,0-2.2-2.2h-.413l3.679-.986,1.457,5.439a.735.735,0,0,1-.519.9Z" transform="translate(0 0)" fill="#fff"/>
    <path id="Path_1006" data-name="Path 1006" d="M60.734,246.406h4.9a.734.734,0,0,0,.734-.734v-2.938A.734.734,0,0,0,65.63,242h-4.9a.734.734,0,0,0-.734.734v2.938A.734.734,0,0,0,60.734,246.406Zm.734-2.938H64.9v1.469H61.469Z" transform="translate(-57.062 -230.152)" fill="#fff"/>
    <path id="Path_1007" data-name="Path 1007" d="M293.182,242h-2.448a.734.734,0,1,0,0,1.469h2.448a.734.734,0,0,0,0-1.469Z" transform="translate(-275.802 -230.152)" fill="#fff"/>
    <path id="Path_1008" data-name="Path 1008" d="M293.182,302h-2.448a.734.734,0,1,0,0,1.469h2.448a.734.734,0,0,0,0-1.469Z" transform="translate(-275.802 -287.214)" fill="#fff"/>
    <path id="Path_1009" data-name="Path 1009" d="M65.63,422h-4.9a.734.734,0,1,0,0,1.469h4.9a.734.734,0,0,0,0-1.469Z" transform="translate(-57.062 -401.339)" fill="#fff"/>
    <path id="Path_1010" data-name="Path 1010" d="M60.734,363.469H62.2a.734.734,0,0,0,0-1.469H60.734a.734.734,0,0,0,0,1.469Z" transform="translate(-57.062 -344.277)" fill="#fff"/>
    <path id="Path_1011" data-name="Path 1011" d="M152.2,362h-1.469a.734.734,0,0,0,0,1.469H152.2a.734.734,0,0,0,0-1.469Z" transform="translate(-142.656 -344.277)" fill="#fff"/>
    <path id="Path_1012" data-name="Path 1012" d="M242.2,362h-1.469a.734.734,0,0,0,0,1.469H242.2a.734.734,0,1,0,0-1.469Z" transform="translate(-228.25 -344.277)" fill="#fff"/>
  </g>
</svg>
