<svg xmlns="http://www.w3.org/2000/svg" width="24" height="24" viewBox="0 0 24 24">
  <path id="Path_980" data-name="Path 980" d="M9,12A6,6,0,1,0,3,6,6.006,6.006,0,0,0,9,12ZM9,1A5,5,0,1,1,4,6,5.006,5.006,0,0,1,9,1Zm3.767,14.94A8,8,0,0,0,1,23v.5a.5.5,0,0,1-1,0V23a9,9,0,0,1,13.239-7.941.5.5,0,1,1-.472.882Zm10.5-4.208a2.56,2.56,0,0,0-3.535,0l-7.707,7.707A3.477,3.477,0,0,0,11,21.914V23.5a.5.5,0,0,0,.5.5h1.586a3.477,3.477,0,0,0,2.475-1.025l7.707-7.707a2.5,2.5,0,0,0,0-3.536ZM22.56,14.56l-7.707,7.707A2.484,2.484,0,0,1,13.085,23H12V21.913a2.486,2.486,0,0,1,.732-1.768l7.707-7.707a1.537,1.537,0,0,1,2.121,0,1.5,1.5,0,0,1,0,2.122Z" fill="#79b700"/>
</svg>
