<svg id="Group_562" data-name="Group 562" xmlns="http://www.w3.org/2000/svg" xmlns:xlink="http://www.w3.org/1999/xlink" width="344.61" height="230.627" viewBox="0 0 344.61 230.627">
  <defs>
    <clipPath id="clip-path">
      <rect id="Rectangle_485" data-name="Rectangle 485" width="344.61" height="230.627" fill="none"/>
    </clipPath>
    <clipPath id="clip-path-2">
      <rect id="Rectangle_477" data-name="Rectangle 477" width="344.611" height="230.627" fill="none"/>
    </clipPath>
    <clipPath id="clip-path-3">
      <rect id="Rectangle_463" data-name="Rectangle 463" width="344.61" height="227.345" fill="none"/>
    </clipPath>
    <clipPath id="clip-path-4">
      <rect id="Rectangle_466" data-name="Rectangle 466" width="163.149" height="217.98" fill="none"/>
    </clipPath>
    <clipPath id="clip-path-5">
      <rect id="Rectangle_467" data-name="Rectangle 467" width="77.327" height="169.843" fill="none"/>
    </clipPath>
    <clipPath id="clip-path-6">
      <rect id="Rectangle_468" data-name="Rectangle 468" width="230.362" height="30.276" fill="none"/>
    </clipPath>
    <clipPath id="clip-path-7">
      <rect id="Rectangle_469" data-name="Rectangle 469" width="114.147" height="128.202" fill="none"/>
    </clipPath>
    <clipPath id="clip-path-8">
      <rect id="Rectangle_470" data-name="Rectangle 470" width="238.03" height="26.474" fill="none"/>
    </clipPath>
    <clipPath id="clip-path-9">
      <rect id="Rectangle_472" data-name="Rectangle 472" width="7.736" height="179.61" fill="none"/>
    </clipPath>
    <clipPath id="clip-path-10">
      <rect id="Rectangle_473" data-name="Rectangle 473" width="141.268" height="37.294" fill="none"/>
    </clipPath>
    <clipPath id="clip-path-11">
      <rect id="Rectangle_474" data-name="Rectangle 474" width="141.269" height="37.294" fill="none"/>
    </clipPath>
    <clipPath id="clip-path-12">
      <rect id="Rectangle_475" data-name="Rectangle 475" width="122.307" height="37.326" fill="none"/>
    </clipPath>
    <clipPath id="clip-path-13">
      <rect id="Rectangle_476" data-name="Rectangle 476" width="44.305" height="33.323" fill="none"/>
    </clipPath>
    <clipPath id="clip-path-16">
      <rect id="Rectangle_479" data-name="Rectangle 479" width="53.784" height="26.886" fill="none"/>
    </clipPath>
  </defs>
  <g id="Group_561" data-name="Group 561" clip-path="url(#clip-path)">
    <g id="Group_550" data-name="Group 550">
      <g id="Group_549" data-name="Group 549" clip-path="url(#clip-path-2)">
        <g id="Group_518" data-name="Group 518" opacity="0.14" style="isolation: isolate">
          <g id="Group_517" data-name="Group 517">
            <g id="Group_516" data-name="Group 516" clip-path="url(#clip-path-3)">
              <path id="Path_1104" data-name="Path 1104" d="M341.935,174.9H305.7a141.746,141.746,0,0,0-11.325-97.848h25.7a2.676,2.676,0,0,0,0-5.351H291.494A141.218,141.218,0,0,0,76.732,33.941H33.253a2.675,2.675,0,0,0-2.676,2.675h0a2.675,2.675,0,0,0,2.676,2.675H70.83q-4.5,4.318-8.612,9.021H2.676a2.676,2.676,0,0,0,0,5.351H57.767A141.381,141.381,0,0,0,37.4,193.557h-7.05a2.676,2.676,0,1,0,0,5.351h9.318q1.46,3.255,3.077,6.421H11.084a2.676,2.676,0,1,0,0,5.351H45.623a141.376,141.376,0,0,0,11.068,16.665H280.428a141.009,141.009,0,0,0,18.735-32.413h26.26a2.675,2.675,0,1,0,0-5.351H301.24q1.675-4.591,3.037-9.326h37.658a2.676,2.676,0,1,0,0-5.351" fill="#75aa17"/>
            </g>
          </g>
        </g>
        <g id="Group_521" data-name="Group 521" transform="translate(174.123 9.357)" opacity="0.14" style="isolation: isolate">
          <g id="Group_520" data-name="Group 520">
            <g id="Group_519" data-name="Group 519" clip-path="url(#clip-path-4)">
              <path id="Path_1105" data-name="Path 1105" d="M659.758,688.5h-17.1a2.236,2.236,0,0,1,2.236-2.236h12.633a2.236,2.236,0,0,1,2.236,2.236" transform="translate(-605.98 -470.519)" fill="#75aa17"/>
              <path id="Path_1106" data-name="Path 1106" d="M664.007,515.451h-9l2.925-83.376,1.966,1.306Z" transform="translate(-614.282 -299.707)" fill="#75aa17"/>
              <path id="Path_1107" data-name="Path 1107" d="M655.878,688.5h-17.1a2.236,2.236,0,0,1,2.236-2.236h12.633a2.236,2.236,0,0,1,2.236,2.236" transform="translate(-603.373 -470.519)" fill="#75aa17"/>
              <path id="Path_1108" data-name="Path 1108" d="M664.847,431.082l43.039,24.849-.47-2.446a2.019,2.019,0,0,0-.747-1.216L678.551,430.5a2.019,2.019,0,0,0-1.814-.338l-5.641,1.685a2.018,2.018,0,0,1-1.587-.186L665.76,429.5Z" transform="translate(-620.894 -297.978)" fill="#75aa17"/>
              <path id="Path_1109" data-name="Path 1109" d="M573.888,429.5l-43.039,24.849,2.35.815a2.031,2.031,0,0,0,1.433-.039l32.9-13.464a2.031,2.031,0,0,0,1.206-1.409l1.358-5.718a2.03,2.03,0,0,1,.96-1.289l3.745-2.162Z" transform="translate(-530.849 -297.977)" fill="#75aa17"/>
              <path id="Path_1110" data-name="Path 1110" d="M652.525,327.685v-49.7l-1.882,1.629a2.023,2.023,0,0,0-.681,1.258l-4.79,35.229a2.025,2.025,0,0,0,.616,1.745l4.276,4.039a2.025,2.025,0,0,1,.634,1.472v4.326Z" transform="translate(-607.661 -196.162)" fill="#75aa17"/>
              <path id="Path_1111" data-name="Path 1111" d="M660.515,515.451h-8.261l2.926-83.376h2.41Z" transform="translate(-612.432 -299.707)" fill="#75aa17"/>
              <path id="Path_1112" data-name="Path 1112" d="M662.628,427.74a2.116,2.116,0,1,1-2.116-2.116,2.116,2.116,0,0,1,2.116,2.116" transform="translate(-616.56 -295.372)" fill="#75aa17"/>
              <path id="Path_1113" data-name="Path 1113" d="M662.385,427.742a1.929,1.929,0,1,1-1.929-1.929,1.929,1.929,0,0,1,1.929,1.929" transform="translate(-616.647 -295.499)" fill="#75aa17"/>
              <path id="Path_1114" data-name="Path 1114" d="M531.613,456.03l41.116-24.394-.037-.029L530.85,455.765Z" transform="translate(-530.849 -299.393)" fill="#75aa17"/>
              <rect id="Rectangle_464" data-name="Rectangle 464" width="8.242" height="0.542" transform="translate(39.841 215.202)" fill="#75aa17"/>
              <path id="Path_1115" data-name="Path 1115" d="M665.77,278.517l.566,48.143.043-.018V277.988Z" transform="translate(-621.514 -196.162)" fill="#75aa17"/>
              <path id="Path_1116" data-name="Path 1116" d="M710.186,459.7,668.5,436.288l-.006.046,41.843,24.158Z" transform="translate(-623.347 -302.539)" fill="#75aa17"/>
              <path id="Path_1117" data-name="Path 1117" d="M810.021,685.746H782.637a3.58,3.58,0,0,1,3.58-3.58h20.224a3.58,3.58,0,0,1,3.58,3.58" transform="translate(-700.048 -467.766)" fill="#75aa17"/>
              <path id="Path_1118" data-name="Path 1118" d="M816.824,408.7h-14.41L807.1,275.216l3.147,2.092Z" transform="translate(-713.338 -194.3)" fill="#75aa17"/>
              <path id="Path_1119" data-name="Path 1119" d="M803.809,685.746H776.425a3.58,3.58,0,0,1,3.58-3.58h20.224a3.58,3.58,0,0,1,3.58,3.58" transform="translate(-695.874 -467.766)" fill="#75aa17"/>
              <path id="Path_1120" data-name="Path 1120" d="M818.169,273.628l68.9,39.782-.839-4.365a2.022,2.022,0,0,0-.748-1.217l-45.87-35.507a2.023,2.023,0,0,0-1.816-.339l-10.127,3.026a2.021,2.021,0,0,1-1.589-.186l-6.454-3.727Z" transform="translate(-723.925 -191.531)" fill="#75aa17"/>
              <path id="Path_1121" data-name="Path 1121" d="M672.547,271.1l-68.9,39.782,4.2,1.456a2.024,2.024,0,0,0,1.429-.039l54.645-22.364L666.8,277.79l7.208-4.162Z" transform="translate(-579.765 -191.531)" fill="#75aa17"/>
              <path id="Path_1122" data-name="Path 1122" d="M798.292,108.093V28.528l-3.36,2.908a2.024,2.024,0,0,0-.681,1.258l-7.815,57.475a2.025,2.025,0,0,0,.616,1.745l7.681,7.255a2.025,2.025,0,0,1,.635,1.472v7.451Z" transform="translate(-702.589 -28.528)" fill="#75aa17"/>
              <path id="Path_1123" data-name="Path 1123" d="M811.234,408.7H798.008l4.683-133.483h3.859Z" transform="translate(-710.377 -194.3)" fill="#75aa17"/>
              <path id="Path_1124" data-name="Path 1124" d="M814.616,268.277a3.387,3.387,0,1,1-3.387-3.387,3.387,3.387,0,0,1,3.387,3.387" transform="translate(-716.986 -187.361)" fill="#75aa17"/>
              <path id="Path_1125" data-name="Path 1125" d="M814.226,268.281a3.089,3.089,0,1,1-3.089-3.089,3.089,3.089,0,0,1,3.089,3.089" transform="translate(-717.125 -187.564)" fill="#75aa17"/>
              <path id="Path_1126" data-name="Path 1126" d="M604.863,313.568l65.826-39.054-.059-.046-66.989,38.676Z" transform="translate(-579.765 -193.798)" fill="#75aa17"/>
              <rect id="Rectangle_465" data-name="Rectangle 465" width="13.195" height="0.868" transform="translate(87.661 213.532)" fill="#75aa17"/>
              <path id="Path_1127" data-name="Path 1127" d="M819.646,29.375l.906,77.075.069-.029V28.528Z" transform="translate(-724.918 -28.527)" fill="#75aa17"/>
              <path id="Path_1128" data-name="Path 1128" d="M890.756,319.443l-66.734-37.48-.01.074L891,320.712Z" transform="translate(-727.851 -198.833)" fill="#75aa17"/>
            </g>
          </g>
        </g>
        <g id="Group_524" data-name="Group 524" transform="translate(48.738 57.574)" opacity="0.14" style="isolation: isolate">
          <g id="Group_523" data-name="Group 523">
            <g id="Group_522" data-name="Group 522" clip-path="url(#clip-path-5)">
              <path id="Path_1129" data-name="Path 1129" d="M164.618,354.76h0a16.078,16.078,0,0,1-16.031-16.031v-36.9a16.031,16.031,0,0,1,32.062,0v36.9a16.078,16.078,0,0,1-16.031,16.031" transform="translate(-148.587 -249.625)" fill="#75aa17"/>
              <path id="Path_1130" data-name="Path 1130" d="M196.543,470.207h-1.749V362.174a.875.875,0,0,1,1.749,0Z" transform="translate(-179.638 -300.364)" fill="#75aa17"/>
              <path id="Path_1131" data-name="Path 1131" d="M186.82,390.452l-4.863-8.424a.875.875,0,0,0-1.515.874l4.863,8.424Z" transform="translate(-169.914 -313.999)" fill="#75aa17"/>
              <path id="Path_1132" data-name="Path 1132" d="M196.31,419.376l4.863-8.424a.875.875,0,1,0-1.515-.874l-4.863,8.424Z" transform="translate(-179.638 -332.848)" fill="#75aa17"/>
              <path id="Path_1133" data-name="Path 1133" d="M280.563,263.1h0A20.417,20.417,0,0,1,260.2,242.742V195.881a20.357,20.357,0,0,1,40.715,0v46.861A20.417,20.417,0,0,1,280.563,263.1" transform="translate(-223.593 -175.524)" fill="#75aa17"/>
              <path id="Path_1134" data-name="Path 1134" d="M321.1,409.7h-2.221V272.515a1.111,1.111,0,1,1,2.221,0Z" transform="translate(-263.024 -239.954)" fill="#75aa17"/>
              <path id="Path_1135" data-name="Path 1135" d="M308.757,308.423l-6.176-10.7a1.111,1.111,0,1,0-1.923,1.111l6.176,10.7Z" transform="translate(-250.677 -257.27)" fill="#75aa17"/>
              <path id="Path_1136" data-name="Path 1136" d="M320.806,345.154l6.176-10.7a1.111,1.111,0,0,0-1.923-1.111l-6.176,10.7Z" transform="translate(-263.024 -281.206)" fill="#75aa17"/>
            </g>
          </g>
        </g>
        <g id="Group_527" data-name="Group 527" transform="translate(55.565 197.171)" opacity="0.14" style="isolation: isolate">
          <g id="Group_526" data-name="Group 526">
            <g id="Group_525" data-name="Group 525" clip-path="url(#clip-path-6)">
              <path id="Path_1137" data-name="Path 1137" d="M188.493,653.6c.934-.878,1.361-1.88.993-2.586-.456-.873-1.981-1.007-3.61-.392q.125-.318.231-.656c.868-2.772.372-5.394-1.107-5.857-1.442-.452-3.286,1.315-4.182,3.972-.742-3.044-2.648-5.19-4.281-4.806-1.538.362-2.292,2.839-1.8,5.678-2.254-1-4.429-.916-5.122.284-.717,1.242.4,3.259,2.529,4.73a2.345,2.345,0,0,0-1.8,1.733c-.116.953.7,1.893,2,2.473a.922.922,0,0,0-.049.551c.135.575.863.93,1.815.967v0h12.178v-.01a.536.536,0,0,0,.469-.289.424.424,0,0,0-.039-.346,1.387,1.387,0,0,0,1.265-.729,1.173,1.173,0,0,0-.222-1.071c1.644-.11,2.907-.83,2.948-1.758.035-.815-.886-1.553-2.216-1.89" transform="translate(-169.4 -629.413)" fill="#75aa17"/>
              <path id="Path_1138" data-name="Path 1138" d="M232.849,620.185c1.718-1.615,2.5-3.458,1.826-4.756-.838-1.607-3.645-1.852-6.639-.721q.23-.585.425-1.206c1.6-5.1.685-9.92-2.036-10.772-2.652-.83-6.044,2.419-7.692,7.3-1.365-5.6-4.869-9.544-7.874-8.838-2.829.665-4.216,5.221-3.305,10.442-4.145-1.83-8.144-1.685-9.418.523-1.319,2.285.736,5.994,4.651,8.7-1.856.622-3.132,1.759-3.307,3.187-.214,1.753,1.288,3.481,3.672,4.548a1.7,1.7,0,0,0-.09,1.013c.249,1.057,1.588,1.71,3.338,1.778v.006h22.4v-.019a.984.984,0,0,0,.862-.531.78.78,0,0,0-.072-.637,2.55,2.55,0,0,0,2.327-1.342,2.157,2.157,0,0,0-.409-1.968c3.024-.2,5.347-1.527,5.421-3.232.065-1.5-1.629-2.856-4.075-3.477" transform="translate(-188.441 -601.114)" fill="#75aa17"/>
              <path id="Path_1139" data-name="Path 1139" d="M756.365,627.982c-1.53-1.438-2.229-3.079-1.626-4.235.747-1.431,3.245-1.65,5.912-.643q-.2-.521-.378-1.074c-1.422-4.539-.61-8.833,1.813-9.592,2.362-.739,5.382,2.154,6.849,6.5,1.216-4.985,4.336-8.5,7.012-7.87,2.519.592,3.754,4.649,2.943,9.3,3.691-1.629,7.252-1.5,8.387.465,1.175,2.035-.655,5.338-4.141,7.745,1.653.554,2.789,1.567,2.945,2.838.191,1.561-1.147,3.1-3.269,4.05a1.512,1.512,0,0,1,.08.9c-.221.941-1.413,1.522-2.973,1.583v.005H759.975v-.017a.876.876,0,0,1-.768-.472.694.694,0,0,1,.064-.567,2.271,2.271,0,0,1-2.072-1.195,1.921,1.921,0,0,1,.364-1.753c-2.693-.18-4.761-1.36-4.827-2.878-.058-1.335,1.45-2.543,3.629-3.1" transform="translate(-561.395 -607.758)" fill="#75aa17"/>
              <path id="Path_1140" data-name="Path 1140" d="M830.182,666.887c-.618-.581-.9-1.244-.657-1.711.3-.578,1.311-.667,2.389-.26q-.083-.211-.153-.434c-.574-1.834-.246-3.569.732-3.875.954-.3,2.174.87,2.767,2.628.491-2.014,1.752-3.434,2.833-3.18,1.018.239,1.517,1.878,1.189,3.757,1.491-.659,2.93-.606,3.388.188.475.822-.264,2.157-1.673,3.129a1.552,1.552,0,0,1,1.19,1.147c.077.63-.464,1.252-1.321,1.636a.607.607,0,0,1,.032.364c-.089.38-.571.615-1.2.64v0h-8.058v-.007a.354.354,0,0,1-.31-.191.282.282,0,0,1,.026-.229.918.918,0,0,1-.837-.482.777.777,0,0,1,.147-.708c-1.088-.073-1.924-.55-1.95-1.163-.023-.539.586-1.027,1.466-1.251" transform="translate(-612.453 -640.702)" fill="#75aa17"/>
              <path id="Path_1141" data-name="Path 1141" d="M530.556,631.739c-1.442-1.355-2.1-2.9-1.533-3.992.7-1.348,3.059-1.555,5.573-.605q-.193-.492-.357-1.012c-1.34-4.279-.575-8.327,1.709-9.042,2.226-.7,5.073,2.03,6.456,6.13,1.146-4.7,4.087-8.011,6.609-7.418,2.374.559,3.538,4.382,2.774,8.764,3.479-1.536,6.836-1.414,7.905.439,1.107,1.918-.617,5.032-3.9,7.3,1.558.522,2.629,1.477,2.775,2.675.18,1.471-1.081,2.922-3.082,3.817a1.423,1.423,0,0,1,.075.851c-.209.887-1.332,1.435-2.8,1.492v0h-18.8v-.016a.826.826,0,0,1-.724-.445.655.655,0,0,1,.061-.534,2.141,2.141,0,0,1-1.953-1.126,1.811,1.811,0,0,1,.343-1.652c-2.538-.17-4.488-1.282-4.55-2.713-.054-1.258,1.367-2.4,3.421-2.918" transform="translate(-409.794 -610.937)" fill="#75aa17"/>
              <path id="Path_1142" data-name="Path 1142" d="M597.221,658.39c-.817-.768-1.19-1.644-.868-2.261.4-.764,1.733-.881,3.156-.343q-.109-.279-.2-.574c-.759-2.423-.325-4.716.968-5.121,1.261-.395,2.873,1.15,3.657,3.473.649-2.661,2.315-4.538,3.744-4.2,1.345.316,2,2.482,1.571,4.964,1.971-.87,3.872-.8,4.478.249.627,1.086-.35,2.85-2.211,4.135a2.05,2.05,0,0,1,1.572,1.515c.1.833-.612,1.655-1.746,2.162a.8.8,0,0,1,.043.482c-.118.5-.754.813-1.587.845v0H599.149v-.009a.468.468,0,0,1-.41-.252.371.371,0,0,1,.034-.3,1.212,1.212,0,0,1-1.106-.638,1.025,1.025,0,0,1,.195-.936c-1.438-.1-2.542-.726-2.577-1.537-.031-.713.774-1.358,1.937-1.653" transform="translate(-455.59 -633.51)" fill="#75aa17"/>
            </g>
          </g>
        </g>
        <g id="Group_530" data-name="Group 530" transform="translate(126.07 37.682)" opacity="0.14" style="isolation: isolate">
          <g id="Group_529" data-name="Group 529">
            <g id="Group_528" data-name="Group 528" clip-path="url(#clip-path-7)">
              <path id="Path_1143" data-name="Path 1143" d="M712.6,178.646a1.251,1.251,0,0,0-.377.057c0-.063.007-.126.007-.19a2.653,2.653,0,0,0-5.207-.72,1.719,1.719,0,1,0-.467,3.373l.09,0v0H712.6a1.26,1.26,0,0,0,0-2.52" transform="translate(-599.714 -155.859)" fill="#75aa17"/>
              <path id="Path_1144" data-name="Path 1144" d="M404.379,120.552a2.467,2.467,0,0,0-1.274.352,3.751,3.751,0,0,0-4.125-2.88,5.316,5.316,0,0,0-10.167,2.173c0,.031,0,.063,0,.094a2.742,2.742,0,1,0-1.172,5.222h16.736a2.48,2.48,0,1,0,0-4.961" transform="translate(-384.72 -114.882)" fill="#75aa17"/>
              <path id="Path_1145" data-name="Path 1145" d="M386.861,478.636a2.5,2.5,0,0,1,1.29.357,3.81,3.81,0,0,1,3.71-2.948,3.884,3.884,0,0,1,.469.03,5.387,5.387,0,0,1,10.3,2.2c0,.032,0,.063,0,.1a2.779,2.779,0,1,1,1.187,5.291H386.861a2.513,2.513,0,0,1,0-5.027" transform="translate(-384.348 -355.461)" fill="#75aa17"/>
            </g>
          </g>
        </g>
        <g id="Group_533" data-name="Group 533" transform="translate(52.809 189.719)" opacity="0.14" style="isolation: isolate">
          <g id="Group_532" data-name="Group 532">
            <g id="Group_531" data-name="Group 531" clip-path="url(#clip-path-8)">
              <path id="Path_1146" data-name="Path 1146" d="M876.915,647.016l-.039.152a4.678,4.678,0,0,1-.367.9,3.289,3.289,0,0,1-3.23,1.906,4.613,4.613,0,0,1-.962-.112l-.153-.039.04-.152a4.6,4.6,0,0,1,.366-.9,3.29,3.29,0,0,1,3.231-1.906,4.636,4.636,0,0,1,.962.113Zm-4.359,2.572a3.216,3.216,0,1,0,1.49-2.007,3.839,3.839,0,0,0-1.49,2.007" transform="translate(-638.895 -624.405)" fill="#75aa17"/>
              <path id="Path_1147" data-name="Path 1147" d="M873.693,653.263a1.686,1.686,0,1,1,2.192-2.164,4.561,4.561,0,0,1-2.192,2.164" transform="translate(-637.855 -626.994)" fill="#75aa17"/>
              <path id="Path_1148" data-name="Path 1148" d="M860.5,594.037l0,.2a5.751,5.751,0,0,1-.171,1.193,4.093,4.093,0,0,1-3.321,3.278,5.723,5.723,0,0,1-1.2.155h-.2l0-.2a5.741,5.741,0,0,1,.171-1.193,4.093,4.093,0,0,1,3.321-3.278,5.733,5.733,0,0,1,1.2-.155Zm-4.482,4.424a4,4,0,1,0,1.19-2.873,4.779,4.779,0,0,0-1.19,2.873" transform="translate(-627.773 -588.906)" fill="#75aa17"/>
              <path id="Path_1149" data-name="Path 1149" d="M858.137,602.666a5.672,5.672,0,0,1-3.765.717,4.717,4.717,0,0,1,5.755-3.992,5.674,5.674,0,0,1-1.99,3.275" transform="translate(-626.939 -592.46)" fill="#75aa17"/>
              <path id="Path_1150" data-name="Path 1150" d="M253.052,578.4l.124.106a4.77,4.77,0,0,1,.67.747,3.411,3.411,0,0,1,.317,3.875,4.787,4.787,0,0,1-.541.846l-.1.125-.124-.106a4.766,4.766,0,0,1-.67-.748,3.41,3.41,0,0,1-.317-3.875,4.758,4.758,0,0,1,.541-.846Zm.427,5.23a3.334,3.334,0,0,0-.388-4.76,3.334,3.334,0,0,0,.388,4.76" transform="translate(-222.116 -578.395)" fill="#75aa17"/>
              <path id="Path_1151" data-name="Path 1151" d="M257.383,583.453a4.727,4.727,0,0,1-1.557,2.788,3.931,3.931,0,0,1,.53-5.812,4.726,4.726,0,0,1,1.027,3.024" transform="translate(-224.023 -579.762)" fill="#75aa17"/>
              <path id="Path_1152" data-name="Path 1152" d="M161,634.895l.137-.009a4.009,4.009,0,0,1,.842.056,2.866,2.866,0,0,1,2.466,2.146,4.029,4.029,0,0,1,.172.827l.01.137-.137.009a4.01,4.01,0,0,1-.842-.056,2.866,2.866,0,0,1-2.466-2.146,4,4,0,0,1-.172-.826Zm3.327,2.9a2.8,2.8,0,0,0-3.028-2.636,2.8,2.8,0,0,0,3.028,2.636" transform="translate(-160.998 -616.354)" fill="#75aa17"/>
              <path id="Path_1153" data-name="Path 1153" d="M167.126,634.86a3.973,3.973,0,0,1,.7,2.592,3.3,3.3,0,0,1-3.093-3.808,3.973,3.973,0,0,1,2.393,1.217" transform="translate(-163.5 -615.521)" fill="#75aa17"/>
              <path id="Path_1154" data-name="Path 1154" d="M745.436,622.186l.154,0a4.512,4.512,0,0,1,.942.1A3.218,3.218,0,0,1,749.2,624.8a4.463,4.463,0,0,1,.154.935l.005.154-.154,0a4.508,4.508,0,0,1-.942-.1,3.218,3.218,0,0,1-2.667-2.518,4.5,4.5,0,0,1-.155-.935Zm3.6,3.4a3.145,3.145,0,1,0-2.29-.856,3.753,3.753,0,0,0,2.29.856" transform="translate(-553.735 -607.82)" fill="#75aa17"/>
              <path id="Path_1155" data-name="Path 1155" d="M752.274,622.407a1.648,1.648,0,1,1-2.628-1.473,4.459,4.459,0,0,1,2.628,1.473" transform="translate(-556.544 -606.981)" fill="#75aa17"/>
            </g>
          </g>
        </g>
        <g id="Group_536" data-name="Group 536" transform="translate(166.69 49.383)" style="isolation: isolate">
          <g id="Group_535" data-name="Group 535">
            <g id="Group_534" data-name="Group 534" clip-path="url(#clip-path-9)">
              <rect id="Rectangle_471" data-name="Rectangle 471" width="7.736" height="179.61" transform="translate(0)" fill="#75aa17"/>
            </g>
          </g>
        </g>
        <g id="Group_539" data-name="Group 539" transform="translate(107.201 61.658)" style="isolation: isolate">
          <g id="Group_538" data-name="Group 538">
            <g id="Group_537" data-name="Group 537" clip-path="url(#clip-path-10)">
              <path id="Path_1156" data-name="Path 1156" d="M468.091,206.625l-26.869,18.519-.184.127H326.822V187.977H441.037l14.916,10.281Z" transform="translate(-326.822 -187.977)" fill="#75aa17"/>
            </g>
          </g>
        </g>
        <g id="Group_542" data-name="Group 542" transform="translate(89.704 107.472)" style="isolation: isolate">
          <g id="Group_541" data-name="Group 541">
            <g id="Group_540" data-name="Group 540" clip-path="url(#clip-path-11)">
              <path id="Path_1157" data-name="Path 1157" d="M300.533,364.943H414.748V327.65H300.533L273.479,346.3Z" transform="translate(-273.479 -327.649)" fill="#75aa17"/>
            </g>
          </g>
        </g>
        <g id="Group_545" data-name="Group 545" transform="translate(108.665 107.439)" style="isolation: isolate">
          <g id="Group_544" data-name="Group 544">
            <g id="Group_543" data-name="Group 543" clip-path="url(#clip-path-12)">
              <path id="Path_1158" data-name="Path 1158" d="M427.33,327.549s-13.055,34.835-96.042,31.749l8.092,5.577H453.595V327.582Z" transform="translate(-331.288 -327.549)" fill="#75aa17"/>
            </g>
          </g>
        </g>
        <g id="Group_548" data-name="Group 548" transform="translate(186.668 111.443)" style="isolation: isolate">
          <g id="Group_547" data-name="Group 547">
            <g id="Group_546" data-name="Group 546" clip-path="url(#clip-path-13)">
              <path id="Path_1159" data-name="Path 1159" d="M613.4,339.755s-9.369,31.839-44.3,33.115l44.3.208Z" transform="translate(-569.092 -339.755)" fill="#628a1f"/>
            </g>
          </g>
        </g>
      </g>
    </g>
    <path id="Path_1160" data-name="Path 1160" d="M421.37,338.7v27.99H313.255l-20.3-13.995,20.3-14Zm1.529-1.529H312.779l-22.523,15.524,22.523,15.524H422.9Z" transform="translate(-195.049 -226.575)" fill="#fff"/>
    <g id="Group_558" data-name="Group 558">
      <g id="Group_557" data-name="Group 557" clip-path="url(#clip-path-2)">
        <g id="Group_553" data-name="Group 553" transform="translate(107.201 61.659)" style="isolation: isolate">
          <g id="Group_552" data-name="Group 552">
            <g id="Group_551" data-name="Group 551" clip-path="url(#clip-path-11)">
              <path id="Path_1161" data-name="Path 1161" d="M429.245,187.978S409.809,223,326.822,219.911v5.36H441.036l27.054-18.647-27.054-18.647Z" transform="translate(-326.822 -187.978)" fill="#75aa17"/>
            </g>
          </g>
        </g>
        <g id="Group_556" data-name="Group 556" transform="translate(194.684 71.939)" style="isolation: isolate">
          <g id="Group_555" data-name="Group 555">
            <g id="Group_554" data-name="Group 554" clip-path="url(#clip-path-16)">
              <path id="Path_1162" data-name="Path 1162" d="M647.317,227.688l-26.869,18.519-26.916-.081c24.983-.912,36.891-17.455,41.647-26.8Z" transform="translate(-593.532 -219.321)" fill="#628a1f"/>
            </g>
          </g>
        </g>
      </g>
    </g>
    <path id="Path_1163" data-name="Path 1163" d="M445.987,199.028l20.3,14-20.3,13.995H337.872v-27.99Zm.476-1.529H336.343v31.048h110.12l22.523-15.524Z" transform="translate(-226.019 -132.717)" fill="#fff"/>
    <rect id="Rectangle_481" data-name="Rectangle 481" width="7.736" height="3.348" transform="translate(166.69 98.952)" fill="#303030"/>
    <rect id="Rectangle_482" data-name="Rectangle 482" width="7.736" height="3.348" transform="translate(166.69 144.733)" fill="#303030"/>
    <rect id="Rectangle_483" data-name="Rectangle 483" width="3.013" height="84.26" transform="translate(171.413 144.733)" fill="#303030"/>
    <text id="_404" data-name="404" transform="translate(150.88 133.205)" fill="#fff" font-size="23" font-family="SegoeUI, Segoe UI"><tspan x="0" y="0">404</tspan></text>
    <g id="Group_560" data-name="Group 560">
      <g id="Group_559" data-name="Group 559" clip-path="url(#clip-path-2)">
        <path id="Path_1164" data-name="Path 1164" d="M432.989,696.418H302.036a1.633,1.633,0,0,1,0-3.266H432.989a1.633,1.633,0,0,1,0,3.266" transform="translate(-201.868 -465.792)" fill="#303030"/>
        <path id="Path_1165" data-name="Path 1165" d="M266.1,696.418H244.934a1.633,1.633,0,1,1,0-3.266H266.1a1.633,1.633,0,0,1,0,3.266" transform="translate(-163.496 -465.792)" fill="#303030"/>
        <path id="Path_1166" data-name="Path 1166" d="M169.573,696.418H147.332a1.633,1.633,0,1,1,0-3.266h22.241a1.633,1.633,0,0,1,0,3.266" transform="translate(-97.908 -465.792)" fill="#303030"/>
        <path id="Path_1167" data-name="Path 1167" d="M750.106,696.418H731.857a1.633,1.633,0,0,1,0-3.266h18.249a1.633,1.633,0,0,1,0,3.266" transform="translate(-490.704 -465.792)" fill="#303030"/>
        <path id="Path_1168" data-name="Path 1168" d="M831.99,696.418H818.121a1.633,1.633,0,0,1,0-3.266H831.99a1.633,1.633,0,0,1,0,3.266" transform="translate(-548.672 -465.792)" fill="#303030"/>
      </g>
    </g>
  </g>
</svg>
