<svg xmlns="http://www.w3.org/2000/svg" width="23.011" height="21.215" viewBox="0 0 23.011 21.215">
  <path id="Path_27" data-name="Path 27" d="M13.288,23.85a.8.8,0,0,1-.57-.236L4.062,14.958A6.927,6.927,0,0,1,13.288,4.651a6.927,6.927,0,0,1,9.226,10.306l-8.656,8.656A.8.8,0,0,1,13.288,23.85ZM8.96,4.747A5.312,5.312,0,0,0,5.2,13.817L13.288,21.9l8.086-8.086A5.315,5.315,0,0,0,13.857,6.3a.8.8,0,0,1-1.139,0A5.3,5.3,0,0,0,8.96,4.747Z" transform="translate(-1.782 -2.885)" fill="#79b700" stroke="#fff" stroke-width="0.5"/>
</svg>
