<svg id="Group_510" data-name="Group 510" xmlns="http://www.w3.org/2000/svg" width="24.692" height="24.692" viewBox="0 0 24.692 24.692">
  <g id="Group_509" data-name="Group 509">
    <path id="Path_1102" data-name="Path 1102" d="M22.522,5.787h-2.9A3.615,3.615,0,0,0,16.735,0a5.066,5.066,0,0,0-4.351,2.476A5.229,5.229,0,0,0,7.957,0,3.615,3.615,0,0,0,5.066,5.787H2.17A2.173,2.173,0,0,0,0,7.957v2.894a.723.723,0,0,0,.723.723h.723V22.522a2.173,2.173,0,0,0,2.17,2.17H21.075a2.173,2.173,0,0,0,2.17-2.17V11.574h.723a.723.723,0,0,0,.723-.723V7.957A2.173,2.173,0,0,0,22.522,5.787ZM7.957,1.447a3.715,3.715,0,0,1,3.713,3.617v.723H7.957a2.17,2.17,0,0,1,0-4.34Zm2.17,21.8H3.617a.724.724,0,0,1-.723-.723V11.574h7.234Zm0-13.118H1.447V7.957a.724.724,0,0,1,.723-.723h7.957Zm2.99,13.118H11.574V7.234h1.543Zm0-17.458V5.064a3.621,3.621,0,0,1,3.617-3.617,2.17,2.17,0,0,1,0,4.34ZM21.8,22.522a.724.724,0,0,1-.723.723H14.564V11.574H21.8Zm1.447-12.394H14.564V7.234h7.957a.724.724,0,0,1,.723.723Z" fill="#79b700"/>
  </g>
</svg>
