<svg xmlns="http://www.w3.org/2000/svg" width="22.426" height="22.421" viewBox="0 0 22.426 22.421">
  <g id="layer1" transform="translate(0)">
    <g id="g11673" transform="translate(0)">
      <path id="path9547" d="M13.186,292.654a3.057,3.057,0,0,1,2.148.83l8.723,8.451a1.122,1.122,0,0,1-1.561,1.612l-8.69-8.418a.926.926,0,0,0-1.242,0l-8.69,8.418a1.122,1.122,0,0,1-1.561-1.612l8.725-8.451a3.18,3.18,0,0,1,2.148-.83Z" transform="translate(-1.972 -292.654)" fill="#fff"/>
      <path id="path9909" d="M20.819,303.65a1.121,1.121,0,0,1,1.121,1.121v5.606a3.381,3.381,0,0,1-3.364,3.364H7.364A3.381,3.381,0,0,1,4,310.378v-5.606a1.121,1.121,0,0,1,2.243,0v5.606A1.1,1.1,0,0,0,7.364,311.5H18.577a1.1,1.1,0,0,0,1.121-1.121v-5.606A1.121,1.121,0,0,1,20.819,303.65Z" transform="translate(-1.789 -291.32)" fill="#fff"/>
    </g>
  </g>
</svg>
