<svg xmlns="http://www.w3.org/2000/svg" width="21.537" height="23.884" viewBox="0 0 21.537 23.884">
  <g id="Group_406" data-name="Group 406" transform="translate(-25.154)">
    <path id="Path_983" data-name="Path 983" d="M115.825,85.163a.35.35,0,0,0,.327-.225l.35-.92h2.331l.347.919a.35.35,0,1,0,.655-.247l-1.736-4.6,0-.01a.454.454,0,0,0-.421-.282h0a.454.454,0,0,0-.421.283l0,.008-1.752,4.6a.35.35,0,0,0,.327.475Zm1.848-4.22.9,2.375h-1.8Z" transform="translate(-86.108 -76.076)" fill="#79b700"/>
    <path id="Path_984" data-name="Path 984" d="M347.3,54.255a.35.35,0,1,0,.488-.5l-.42-.409h1.667a.817.817,0,0,1,.816.816v2.717a.35.35,0,0,0,.7,0V54.16a1.518,1.518,0,0,0-1.516-1.516h-1.667l.421-.409a.35.35,0,1,0-.488-.5l-1.037,1.01a.35.35,0,0,0,0,.5Z" transform="translate(-306.034 -49.225)" fill="#79b700"/>
    <path id="Path_985" data-name="Path 985" d="M74.9,343.45a.35.35,0,0,0-.488.5l.42.409H73.168a.817.817,0,0,1-.816-.816v-2.717a.35.35,0,0,0-.7,0v2.717a1.518,1.518,0,0,0,1.516,1.516h1.667l-.421.41a.35.35,0,0,0,.488.5l1.037-1.01a.35.35,0,0,0,0-.5Z" transform="translate(-44.329 -324.596)" fill="#79b700"/>
    <path id="Path_986" data-name="Path 986" d="M305.376,268.618h.528a.35.35,0,0,0,0-.7h-1.528v-.674a.35.35,0,1,0-.7,0v.674h-1.528a.35.35,0,0,0,0,.7h.528a4.9,4.9,0,0,0,.3,1.3,4.029,4.029,0,0,0,.567,1.015,3.166,3.166,0,0,1-1.195.635.35.35,0,1,0,.2.671,3.86,3.86,0,0,0,1.477-.8,3.86,3.86,0,0,0,1.477.8.35.35,0,1,0,.2-.671,3.166,3.166,0,0,1-1.195-.636,4.029,4.029,0,0,0,.568-1.015A4.894,4.894,0,0,0,305.376,268.618Zm-.7,0a4.181,4.181,0,0,1-.253,1.051,3.4,3.4,0,0,1-.394.74,3.392,3.392,0,0,1-.385-.718,4.193,4.193,0,0,1-.261-1.073Z" transform="translate(-263.74 -254.444)" fill="#79b700"/>
    <path id="Path_987" data-name="Path 987" d="M223.4,187.095H220.88a.35.35,0,0,0,0,.7H223.4a.957.957,0,0,1,.955.955v9.5a.957.957,0,0,1-.955.955h-1.795a.612.612,0,0,0-.611.611v1.462l-1.818-1.818a.866.866,0,0,0-.617-.255H213.9a.957.957,0,0,1-.955-.955V195.1a.35.35,0,1,0-.7,0v3.151A1.657,1.657,0,0,0,213.9,199.9h4.659a.171.171,0,0,1,.122.05l2.148,2.148a.506.506,0,0,0,.865-.358V199.9H223.4a1.657,1.657,0,0,0,1.655-1.655v-9.5A1.657,1.657,0,0,0,223.4,187.095Z" transform="translate(-178.367 -178.367)" fill="#79b700"/>
    <path id="Path_988" data-name="Path 988" d="M28.515,14.649a.506.506,0,0,0,.865.358l2.148-2.148a.171.171,0,0,1,.122-.05h2.232V15.2a.35.35,0,1,0,.7,0v-4.82a.957.957,0,0,1,.955-.955H41a.35.35,0,1,0,0-.7H37.963V1.655A1.657,1.657,0,0,0,36.308,0h-9.5a1.657,1.657,0,0,0-1.655,1.655v1.9a.35.35,0,1,0,.7,0v-1.9A.957.957,0,0,1,26.809.7h9.5a.957.957,0,0,1,.955.955V8.728H35.537a1.657,1.657,0,0,0-1.655,1.655V12.11H31.649a.866.866,0,0,0-.617.255l-1.818,1.818V12.721a.612.612,0,0,0-.611-.611H26.809a.957.957,0,0,1-.955-.955V5.083a.35.35,0,1,0-.7,0v6.071a1.657,1.657,0,0,0,1.655,1.655h1.706v1.84Z" transform="translate(0 0)" fill="#79b700"/>
  </g>
</svg>
