<svg xmlns="http://www.w3.org/2000/svg" width="23.884" height="23.884" viewBox="0 0 23.884 23.884">
  <g id="Group_405" data-name="Group 405" transform="translate(-4.556 -4.559)">
    <path id="Path_981" data-name="Path 981" d="M55.16,25.214a2.969,2.969,0,1,0-2.969,2.969A2.969,2.969,0,0,0,55.16,25.214Zm-5.234,0a2.266,2.266,0,1,1,2.266,2.266,2.265,2.265,0,0,1-2.266-2.266Z" transform="translate(-35.693 -14.133)" fill="#79b700"/>
    <path id="Path_982" data-name="Path 982" d="M28.417,27.966l-2.866-7.514a.352.352,0,0,0-.328-.226H19.8l.1-.161c2.087-3.455,3.137-6.478,3.122-8.983a6.522,6.522,0,1,0-13.044,0c-.015,2.506,1.035,5.529,3.122,8.984.033.055.066.107.1.161H7.773a.352.352,0,0,0-.328.226L4.579,27.966a.351.351,0,0,0,.328.477H28.089a.351.351,0,0,0,.328-.477ZM10.679,11.081a5.819,5.819,0,0,1,11.638,0c.03,4.995-4.639,11.154-5.819,12.631C15.318,22.237,10.649,16.079,10.679,11.081ZM16.23,24.5a.352.352,0,0,0,.536,0,37.31,37.31,0,0,0,2.592-3.568H24.98l.45,1.18L14.443,26.017l-3.916-5.089h3.112A37.311,37.311,0,0,0,16.23,24.5Zm-1.8,2.27h0l6.555-2.33,2.542,3.3H11.7ZM8.016,20.928H9.639l4.107,5.336L9.6,27.74H5.418Zm16.4,6.811-2.734-3.552,4-1.422,1.9,4.974Z" fill="#79b700"/>
  </g>
</svg>
