<svg id="Group_399" data-name="Group 399" xmlns="http://www.w3.org/2000/svg" width="23.614" height="23.614" viewBox="0 0 23.614 23.614">
  <path id="Path_965" data-name="Path 965" d="M136.73,437a1.73,1.73,0,1,0,1.73,1.73A1.731,1.731,0,0,0,136.73,437Zm0,2.767a1.038,1.038,0,1,1,1.038-1.038A1.039,1.039,0,0,1,136.73,439.767Z" transform="translate(-128.774 -416.845)" fill="#79b700"/>
  <circle id="Ellipse_168" data-name="Ellipse 168" cx="0.546" cy="0.546" r="0.546" transform="translate(7.648 21.429)" fill="#79b700"/>
  <ellipse id="Ellipse_169" data-name="Ellipse 169" cy="0.546" ry="0.546" transform="translate(19.666 21.429)" fill="#79b700"/>
  <path id="Path_966" data-name="Path 966" d="M393.73,437a1.73,1.73,0,1,0,1.729,1.73A1.731,1.731,0,0,0,393.73,437Zm0,2.767a1.038,1.038,0,1,1,1.038-1.038A1.039,1.039,0,0,1,393.73,439.767Z" transform="translate(-373.92 -416.845)" fill="#79b700"/>
  <path id="Path_967" data-name="Path 967" d="M5.712,16.74,8.23,15.312h5.653a1.733,1.733,0,0,0,1.695-1.384h3.6a2.42,2.42,0,0,0,2.346-1.821L23.6,3.983a.346.346,0,0,0-.335-.432H6.285l-.176-.69A3.8,3.8,0,0,0,2.421,0H1.038a1.038,1.038,0,1,0,0,2.075H2.421A1.728,1.728,0,0,1,4.1,3.375L6.754,13.763,4.689,14.934a2.421,2.421,0,0,0,1.192,4.529H21.193a1.038,1.038,0,0,0,0-2.075H5.881a.346.346,0,0,1-.169-.648Zm12.822-6.732H16.408l.13-2.537h2.385Zm1.089-2.537H22l-.649,2.537H19.234Zm-1.2,3.229-.389,2.537h-1.8l.13-2.537Zm-2.712-.692H13.586l-.13-2.537h2.389Zm.858-3.229.13-2.537h2.715L19.029,6.78Zm-.693,0h-2.46l-.13-2.537H16.01Zm-3.152,0H11.359a.346.346,0,0,0,0,.692h1.4l.13,2.537H10.768L9.883,4.243H12.6Zm-2.66,3.229H7.936L7.287,7.472H9.678Zm.106.692.389,2.537h-1.8L8.113,10.7Zm1.089,2.537L10.874,10.7h2.055l.13,2.537Zm2.488,0-.13-2.537H15.68l-.13,2.537Zm7.1-1.3a1.729,1.729,0,0,1-1.676,1.3h-.442l.389-2.537h2.044ZM22.174,6.78H19.729l.389-2.537h2.7ZM9.183,4.243,9.572,6.78H7.11L6.462,4.243ZM2.421,1.384H1.038a.346.346,0,1,1,0-.692H2.421a3.11,3.11,0,0,1,1.943.68l-.493.493a2.419,2.419,0,0,0-1.45-.482Zm3.459,16.7H21.193a.346.346,0,1,1,0,.692H5.881a1.729,1.729,0,0,1-.851-3.235l2.3-1.3a.346.346,0,0,0,.164-.387L4.768,3.2a2.412,2.412,0,0,0-.406-.85l.493-.493a3.1,3.1,0,0,1,.583,1.172l2.72,10.636a.346.346,0,0,0,.335.26h6.368a1.04,1.04,0,0,1-.978.692H8.139a.346.346,0,0,0-.171.045l-2.6,1.473a1.038,1.038,0,0,0,.51,1.942Z" fill="#79b700"/>
</svg>
