<svg xmlns="http://www.w3.org/2000/svg" width="20.698" height="23.884" viewBox="0 0 20.698 23.884">
  <g id="Layer_x0020_1" transform="translate(-114.454 -1)">
    <g id="_496704376" transform="translate(114.454 1)">
      <g id="Group_414" data-name="Group 414" transform="translate(0 0)">
        <g id="Group_407" data-name="Group 407" transform="translate(0 3.348)">
          <path id="Path_989" data-name="Path 989" d="M131.411,257.454H114.8a.347.347,0,0,1-.294-.154.356.356,0,0,1-.014-.336l1.345-2.8v-6.878a7.277,7.277,0,0,1,13.532-3.726.276.276,0,0,1,.042.21l-.056.42a.331.331,0,0,1-.238.28,2.365,2.365,0,0,0-.42.182.369.369,0,0,1-.378-.028l-1.023-.77-.728.714.784,1.051a.437.437,0,0,1,.042.35,2.009,2.009,0,0,0-.182.448.38.38,0,0,1-.266.238l-1.289.2v1.009l1.289.168a.331.331,0,0,1,.266.238,2.741,2.741,0,0,0,.182.448.351.351,0,0,1-.042.35l-.784,1.023.728.714,1.023-.77a.321.321,0,0,1,.35-.042,4.388,4.388,0,0,0,.462.182.331.331,0,0,1,.238.266l.182,1.289h.5a.356.356,0,0,1,.35.35v2.115l1.331,2.788a.358.358,0,0,1-.014.336A.561.561,0,0,1,131.411,257.454Zm-16.1-.686h15.549l-1.135-2.381a.523.523,0,0,1-.028-.168v-1.863h-.476a.309.309,0,0,1-.322-.28l-.2-1.387c-.042-.014-.1-.042-.14-.056l-1.107.84a.381.381,0,0,1-.448-.042l-1.121-1.135a.359.359,0,0,1-.042-.448l.84-1.107a.5.5,0,0,1-.056-.126l-1.387-.2a.357.357,0,0,1-.294-.336V246.5a.325.325,0,0,1,.294-.336l1.387-.21a.966.966,0,0,1,.056-.14l-.84-1.107a.359.359,0,0,1,.042-.448l1.121-1.121a.343.343,0,0,1,.448-.042l1.107.84c.042-.028.1-.042.14-.07v-.056a6.6,6.6,0,0,0-12.215,3.474v6.934a.739.739,0,0,1-.042.168Z" transform="translate(-114.454 -240)" fill="#79b700" fill-rule="evenodd"/>
        </g>
        <g id="Group_408" data-name="Group 408" transform="translate(3.342 5.351)">
          <path id="Path_990" data-name="Path 990" d="M353.35,388.631a.347.347,0,0,1-.35-.35A5.285,5.285,0,0,1,358.281,383a5.531,5.531,0,0,1,2.1.434.329.329,0,0,1,.168.448.333.333,0,0,1-.448.168,4.453,4.453,0,0,0-1.821-.364,4.6,4.6,0,0,0-4.581,4.595A.356.356,0,0,1,353.35,388.631Z" transform="translate(-353 -383)" fill="#79b700" fill-rule="evenodd"/>
        </g>
        <g id="Group_409" data-name="Group 409" transform="translate(5.177 20.101)">
          <path id="Path_991" data-name="Path 991" d="M487.46,1439.782a3.462,3.462,0,0,1-3.46-3.432.35.35,0,1,1,.7,0,2.767,2.767,0,0,0,5.533,0,.356.356,0,0,1,.35-.35.347.347,0,0,1,.35.35A3.465,3.465,0,0,1,487.46,1439.782Z" transform="translate(-484 -1436)" fill="#79b700" fill-rule="evenodd"/>
        </g>
        <g id="Group_410" data-name="Group 410" transform="translate(6.675)">
          <path id="Path_992" data-name="Path 992" d="M591.35,5.23a.309.309,0,0,1-.21-.084.313.313,0,0,1-.14-.252V1.812A.788.788,0,0,1,591.813,1h2.3a.813.813,0,0,1,.812.812V4.894a.4.4,0,0,1-.126.28.321.321,0,0,1-.294.056,6.827,6.827,0,0,0-1.541-.182,6.426,6.426,0,0,0-1.527.182Zm1.611-.854a9.435,9.435,0,0,1,1.289.1V1.812a.15.15,0,0,0-.14-.14h-2.3a.129.129,0,0,0-.126.14V4.474A9.226,9.226,0,0,1,592.961,4.376Z" transform="translate(-591 -1)" fill="#79b700" fill-rule="evenodd"/>
        </g>
        <g id="Group_413" data-name="Group 413" transform="translate(10.5 5.547)">
          <g id="Group_411" data-name="Group 411">
            <path id="Path_993" data-name="Path 993" d="M869.869,407.184h-1.6a.321.321,0,0,1-.322-.294l-.2-1.387a.586.586,0,0,1-.14-.056l-1.107.84a.36.36,0,0,1-.448-.042l-1.121-1.121a.36.36,0,0,1-.042-.448l.84-1.107a.584.584,0,0,1-.056-.14l-1.387-.2a.331.331,0,0,1-.294-.322v-1.6a.335.335,0,0,1,.294-.336l1.387-.21c.014-.042.028-.07.056-.14l-.84-1.121a.359.359,0,0,1,.042-.448l1.121-1.121a.343.343,0,0,1,.448-.042l1.107.841c.042-.028.1-.042.14-.07l.2-1.373a.32.32,0,0,1,.322-.294h1.6a.324.324,0,0,1,.336.294l.21,1.4a.719.719,0,0,0,.14.056l1.121-.84a.327.327,0,0,1,.448.042l1.121,1.121a.344.344,0,0,1,.042.448l-.826,1.135a.584.584,0,0,0,.056.14l1.4.21a.319.319,0,0,1,.28.322v1.6a.323.323,0,0,1-.28.336l-1.387.182c-.014.042-.042.1-.056.14l.84,1.107a.359.359,0,0,1-.042.448l-1.135,1.135a.357.357,0,0,1-.448.028l-1.135-.854a.42.42,0,0,1-.14.056l-.21,1.387A.335.335,0,0,1,869.869,407.184Zm-1.3-.686h1.009l.2-1.275a.352.352,0,0,1,.238-.28c.154-.056.294-.112.448-.168a.321.321,0,0,1,.35.042l1.051.77.714-.714-.784-1.037a.316.316,0,0,1-.014-.364,1.755,1.755,0,0,0,.168-.434.379.379,0,0,1,.28-.224l1.3-.182v-1.009l-1.3-.2a.337.337,0,0,1-.28-.224,1.754,1.754,0,0,0-.168-.434.375.375,0,0,1,.014-.364l.8-1.051-.714-.714-1.051.784a.316.316,0,0,1-.364.028c-.126-.056-.252-.112-.434-.182A.337.337,0,0,1,869.8,399l-.2-1.3h-1.009l-.2,1.289a.33.33,0,0,1-.238.266,2.387,2.387,0,0,0-.42.168.339.339,0,0,1-.378-.014l-1.023-.77-.729.714.785,1.051a.43.43,0,0,1,.042.35,2.009,2.009,0,0,0-.182.448.337.337,0,0,1-.266.224l-1.289.2v1.009l1.289.182a.315.315,0,0,1,.266.224,2.317,2.317,0,0,0,.182.448.347.347,0,0,1-.042.35l-.785,1.037.729.714,1.023-.77a.321.321,0,0,1,.35-.042q.273.105.462.168a.348.348,0,0,1,.238.28Z" transform="translate(-864 -397)" fill="#79b700" fill-rule="evenodd"/>
          </g>
          <g id="Group_412" data-name="Group 412" transform="translate(2.942 2.956)">
            <path id="Path_994" data-name="Path 994" d="M1076.129,612.272a2.136,2.136,0,1,1,2.143-2.143A2.14,2.14,0,0,1,1076.129,612.272Zm0-3.572a1.457,1.457,0,1,0,1.457,1.457A1.456,1.456,0,0,0,1076.129,608.7Z" transform="translate(-1074 -608)" fill="#79b700" fill-rule="evenodd"/>
          </g>
        </g>
      </g>
    </g>
  </g>
</svg>
