<svg xmlns="http://www.w3.org/2000/svg" width="22.693" height="22.693" viewBox="0 0 22.693 22.693">
  <path id="Path_968" data-name="Path 968" d="M19.151,0H2.542A2.545,2.545,0,0,0,0,2.542V19.151a2.545,2.545,0,0,0,2.542,2.542H19.151a2.545,2.545,0,0,0,2.542-2.542V2.542A2.545,2.545,0,0,0,19.151,0ZM20,2.542V4.237H13.813V1.695h5.339A.848.848,0,0,1,20,2.542ZM9.533,1.695h2.585V6.779H9.533Zm-6.991,0h5.3V4.237H1.695V2.542A.848.848,0,0,1,2.542,1.695ZM12.075,20H9.533V18.3h2.542Zm7.076,0H13.77v-3.39H7.838V20h-5.3a.848.848,0,0,1-.847-.847V5.932H7.838V8.474h5.974V5.932H20V19.151A.848.848,0,0,1,19.151,20Zm0,0" transform="translate(0.5 0.5)" fill="#79b700" stroke="#fff" stroke-width="1"/>
</svg>
