<svg xmlns="http://www.w3.org/2000/svg" width="24.5" height="24.5" viewBox="0 0 24.5 24.5">
  <g id="Group_8" data-name="Group 8" transform="translate(-1.25 -1.25)">
    <path id="Path_7" data-name="Path 7" d="M13.5,2.959A10.541,10.541,0,1,0,24.041,13.5,10.541,10.541,0,0,0,13.5,2.959ZM1.25,13.5A12.25,12.25,0,1,1,13.5,25.75,12.25,12.25,0,0,1,1.25,13.5Z" fill="#91c42f" fill-rule="evenodd"/>
    <path id="Path_8" data-name="Path 8" d="M21.528,18.967a11.4,11.4,0,0,1-16.978,0c1.558-1.459,5.678-2.411,8.489-2.411S19.971,17.508,21.528,18.967Z" transform="translate(0.461 2.136)" fill="#91c42f"/>
    <path id="Path_9" data-name="Path 9" d="M17.685,10.065A5.065,5.065,0,1,1,12.62,5,5.065,5.065,0,0,1,17.685,10.065Z" transform="translate(0.88 0.523)" fill="#91c42f"/>
    <path id="Path_969" data-name="Path 969" d="M15.106,18.055a7.085,7.085,0,0,1-10.555,0c.968-.907,3.53-1.5,5.277-1.5S14.137,17.147,15.106,18.055Z" transform="translate(3.72 3.483)" fill="#fff"/>
  </g>
</svg>
