<svg xmlns="http://www.w3.org/2000/svg" width="30" height="29.991" viewBox="0 0 30 29.991">
  <g id="Group_492" data-name="Group 492" transform="translate(0 -0.5)">
    <path id="Path_1089" data-name="Path 1089" d="M282,.5a.586.586,0,1,0,0,1.172,11.766,11.766,0,0,1,11.753,11.753.586.586,0,1,0,1.172,0A12.939,12.939,0,0,0,282,.5Zm0,0" transform="translate(-264.929)" fill="#79b700"/>
    <path id="Path_1090" data-name="Path 1090" d="M282,60.66a.586.586,0,0,0,0,1.172,8.237,8.237,0,0,1,8.228,8.228.586.586,0,0,0,1.172,0,9.41,9.41,0,0,0-9.4-9.4Zm0,0" transform="translate(-264.929 -56.635)" fill="#79b700"/>
    <path id="Path_1091" data-name="Path 1091" d="M286.706,126.71a.586.586,0,1,0,1.172,0A5.88,5.88,0,0,0,282,120.836a.586.586,0,1,0,0,1.172,4.707,4.707,0,0,1,4.7,4.7Zm0,0" transform="translate(-264.929 -113.285)" fill="#79b700"/>
    <path id="Path_1092" data-name="Path 1092" d="M281.418,181.586a.586.586,0,0,0,.586.586,1.178,1.178,0,0,1,1.177,1.177.586.586,0,1,0,1.172,0A2.351,2.351,0,0,0,282,181,.586.586,0,0,0,281.418,181.586Zm0,0" transform="translate(-264.929 -169.924)" fill="#79b700"/>
    <path id="Path_1093" data-name="Path 1093" d="M172.156,313.461a.586.586,0,1,1-.586-.586A.586.586,0,0,1,172.156,313.461Zm0,0" transform="translate(-160.965 -294.072)" fill="#79b700"/>
    <path id="Path_1094" data-name="Path 1094" d="M20.8,85.949a1.76,1.76,0,0,0-2.486,0l-1.928,1.928a1.268,1.268,0,0,1-1.494.143A21.843,21.843,0,0,1,12.942,86.6a.586.586,0,1,0-.74.909,23.027,23.027,0,0,0,2.058,1.493,2.443,2.443,0,0,0,2.958-.3l1.928-1.928a.587.587,0,0,1,.829,0l4.558,4.558a.587.587,0,0,1,0,.829L22.827,93.87a4.726,4.726,0,0,1-5.293.935A32.3,32.3,0,0,1,1.587,78.762a4.656,4.656,0,0,1,.964-5.222L4.23,71.862a.585.585,0,0,1,.828,0L9.616,76.42a.586.586,0,0,1,0,.828L7.688,79.177a2.443,2.443,0,0,0-.3,2.958c.331.514.687,1.02,1.057,1.505a.586.586,0,0,0,.931-.712c-.352-.46-.689-.941-1-1.428a1.268,1.268,0,0,1,.143-1.494l1.928-1.928a1.757,1.757,0,0,0,0-2.486L5.887,71.033a1.757,1.757,0,0,0-2.486,0L1.722,72.711a5.833,5.833,0,0,0-1.2,6.542A33.524,33.524,0,0,0,17.045,95.871a5.9,5.9,0,0,0,6.61-1.172l1.706-1.706a1.76,1.76,0,0,0,0-2.486Zm0,0" transform="translate(0 -65.915)" fill="#79b700"/>
  </g>
</svg>
