<svg xmlns="http://www.w3.org/2000/svg" width="23.588" height="22.421" viewBox="0 0 23.588 22.421">
  <g id="Exp-2.-O" transform="translate(-33.333 -38.889)">
    <g id="Group_398" data-name="Group 398" transform="translate(33.333 38.889)">
      <path id="Path_960" data-name="Path 960" d="M52.9,197.909l2.75,1.426a.458.458,0,0,1,0,.813l-9.947,5.158a1.373,1.373,0,0,1-1.264,0L34.5,200.148a.458.458,0,0,1,0-.813l2.88-1.493a.458.458,0,0,0-.421-.813l-2.88,1.493a1.373,1.373,0,0,0,0,2.438l9.947,5.158a2.288,2.288,0,0,0,2.107,0l9.947-5.158a1.373,1.373,0,0,0,0-2.438l-2.75-1.426a.458.458,0,1,0-.421.813Z" transform="translate(-33.333 -183.955)" fill="#79b700" fill-rule="evenodd"/>
      <path id="Path_961" data-name="Path 961" d="M54.136,142.829l2.778,1.44a.458.458,0,0,1,0,.813l-9.947,5.158a1.373,1.373,0,0,1-1.264,0l-9.948-5.158a.458.458,0,0,1,0-.813l2.8-1.449a.458.458,0,1,0-.421-.813l-2.8,1.449a1.373,1.373,0,0,0,0,2.438l9.947,5.158a2.288,2.288,0,0,0,2.107,0l9.948-5.158a1.373,1.373,0,0,0,0-2.438l-2.778-1.44a.458.458,0,0,0-.421.813Z" transform="translate(-34.488 -133.465)" fill="#79b700" fill-rule="evenodd"/>
      <path id="Path_962" data-name="Path 962" d="M45.28,39.146,35.333,44.3a1.373,1.373,0,0,0,0,2.438L45.28,51.9a2.289,2.289,0,0,0,2.107,0l9.948-5.158a1.373,1.373,0,0,0,0-2.438l-9.948-5.158a2.288,2.288,0,0,0-2.107,0Zm.421.813a1.373,1.373,0,0,1,1.264,0l9.947,5.158a.458.458,0,0,1,0,.813l-9.947,5.158a1.373,1.373,0,0,1-1.264,0l-9.948-5.158a.458.458,0,0,1,0-.813Z" transform="translate(-34.488 -38.889)" fill="#79b700" fill-rule="evenodd"/>
    </g>
  </g>
</svg>
