<svg xmlns="http://www.w3.org/2000/svg" width="20.081" height="20.08" viewBox="0 0 20.081 20.08">
  <path id="Path_771" data-name="Path 771" d="M19.08,5.7A10.04,10.04,0,0,1,2.29,16.448l-.051,1.991a.314.314,0,0,1-.313.305H1.916a.314.314,0,0,1-.305-.322l.075-2.891a.313.313,0,0,1,.322-.305L4.9,15.3a.314.314,0,1,1-.016.627l-2.254-.058A9.412,9.412,0,0,0,18.515,5.977.314.314,0,0,1,19.08,5.7ZM.989,14.415a.314.314,0,0,0,.565-.273A9.412,9.412,0,0,1,17.44,4.25l-2.254-.058a.314.314,0,1,0-.017.628l2.892.075h.008a.314.314,0,0,0,.314-.305L18.458,1.7a.314.314,0,1,0-.627-.016l-.051,1.99A10.04,10.04,0,0,0,.989,14.415Zm10.923-1.3a.314.314,0,0,0,.314.314h1.389a.314.314,0,0,0,0-.628H12.225a.314.314,0,0,0-.314.314Zm0-1.213a.314.314,0,0,0,.314.314h.97a.314.314,0,0,0,0-.628h-.971a.314.314,0,0,0-.314.314Zm2.471,1.66V8.642H11.709a.313.313,0,0,1-.255-.131L10.348,6.966v6.851h3.777a.257.257,0,0,0,.257-.257Zm-8.7,0a.257.257,0,0,0,.257.257H9.72V6.966L8.615,8.511a.314.314,0,0,1-.255.131H5.687V13.56Zm.257.884h8.181a.886.886,0,0,0,.885-.884V8.642h.762a.5.5,0,0,0,.41-.8L14.723,5.805a.313.313,0,0,0-.255-.131H5.6a.313.313,0,0,0-.255.131L3.887,7.845a.5.5,0,0,0,.41.8h.762V13.56a.886.886,0,0,0,.885.884Z" transform="translate(0.006 -0.02)" fill="#699a00" fill-rule="evenodd"/>
</svg>
