<svg id="Group_416" data-name="Group 416" xmlns="http://www.w3.org/2000/svg" width="25.708" height="18.108" viewBox="0 0 25.708 18.108">
  <path id="Path_1001" data-name="Path 1001" d="M0,7.23S1.44,5.991,2.653,6.682c.934.537,6.867,3.514,9.514,4.84l3.748-2.143a3.091,3.091,0,0,1-.256-2.359,4.39,4.39,0,0,1,2.092-2.6c1.945-1.115,4.283-.691,5.216.947a3.091,3.091,0,0,1,.266,2.373,4.406,4.406,0,0,1-2.092,2.6,4.765,4.765,0,0,1-1.471.541h0l-.012,0c-.039.006-.084.015-.127.02a11.234,11.234,0,0,0-5.43,1.944,11.22,11.22,0,0,0,5.43,1.945c.043.005.088.013.127.019l.012,0h0a4.761,4.761,0,0,1,1.471.542,4.407,4.407,0,0,1,2.092,2.6,3.094,3.094,0,0,1-.266,2.375c-.934,1.635-3.271,2.061-5.217.946a4.4,4.4,0,0,1-2.092-2.6,3.092,3.092,0,0,1,.256-2.357l-3.748-2.142c-2.646,1.325-8.58,4.3-9.514,4.839C1.439,19.715,0,18.477,0,18.477l9.838-5.624ZM17.512,8.487c.426.742,1.67.863,2.717.264a2.591,2.591,0,0,0,1.236-1.488,1.285,1.285,0,0,0-.088-.985c-.424-.741-1.668-.862-2.715-.264A2.543,2.543,0,0,0,17.428,7.5,1.292,1.292,0,0,0,17.512,8.487ZM17.428,18.2a2.545,2.545,0,0,0,1.234,1.489c1.047.6,2.291.478,2.715-.265a1.287,1.287,0,0,0,.088-.982,2.6,2.6,0,0,0-1.236-1.492c-1.047-.6-2.291-.477-2.717.266A1.29,1.29,0,0,0,17.428,18.2Z" transform="translate(2.353 -3.8)" fill="#79b700"/>
  <rect id="Rectangle_346" data-name="Rectangle 346" width="2.41" height="0.992" transform="translate(7.434 8.567)" fill="#79b700"/>
  <rect id="Rectangle_347" data-name="Rectangle 347" width="2.408" height="0.992" transform="translate(3.822 8.567)" fill="#79b700"/>
  <rect id="Rectangle_348" data-name="Rectangle 348" width="2.406" height="0.991" transform="translate(0 8.557)" fill="#79b700"/>
</svg>
