<svg xmlns="http://www.w3.org/2000/svg" width="23.549" height="23.662" viewBox="0 0 23.549 23.662">
  <path id="Path_963" data-name="Path 963" d="M14.776,12.108a.942.942,0,0,1,.391.944,1.409,1.409,0,0,0,.389,1.317,1.431,1.431,0,0,0,.431.3l-1.319,2.794a.237.237,0,0,0,.285.327l1.407-.44.685,1.3a.237.237,0,0,0,.209.127h.017a.237.237,0,0,0,.206-.156l1.039-2.908a1.516,1.516,0,0,0,1.025,0l1.043,2.908a.237.237,0,0,0,.206.156h.016a.237.237,0,0,0,.21-.127l.684-1.306,1.407.438a.237.237,0,0,0,.284-.327L22.07,14.666a1.436,1.436,0,0,0,.42-.3,1.409,1.409,0,0,0,.389-1.317.942.942,0,0,1,.391-.944,1.437,1.437,0,0,0,0-2.412.942.942,0,0,1-.391-.944,1.437,1.437,0,0,0-1.706-1.706.941.941,0,0,1-.944-.391,1.437,1.437,0,0,0-2.413,0,.942.942,0,0,1-.944.391,1.437,1.437,0,0,0-1.706,1.706.942.942,0,0,1-.391.944,1.437,1.437,0,0,0,0,2.412Zm2.437,5.851-.526-1a.237.237,0,0,0-.28-.116l-1.08.338,1.131-2.4a1.815,1.815,0,0,0,.415-.025.942.942,0,0,1,.944.391,1.8,1.8,0,0,0,.286.319Zm5.52-.787-1.081-.336a.237.237,0,0,0-.28.116l-.525,1-.895-2.494a1.819,1.819,0,0,0,.276-.311.942.942,0,0,1,.944-.391,1.809,1.809,0,0,0,.428.024l1.132,2.39Zm-7.683-7.09a1.406,1.406,0,0,0,.584-1.409.965.965,0,0,1,1.16-1.16A1.406,1.406,0,0,0,18.2,6.929a.965.965,0,0,1,1.641,0,1.406,1.406,0,0,0,1.409.584.965.965,0,0,1,1.16,1.16A1.406,1.406,0,0,0,23,10.082a.965.965,0,0,1,0,1.641,1.406,1.406,0,0,0-.584,1.409.965.965,0,0,1-1.16,1.16,1.406,1.406,0,0,0-1.409.584.965.965,0,0,1-1.641,0,1.4,1.4,0,0,0-1.156-.605,1.516,1.516,0,0,0-.253.022.965.965,0,0,1-1.16-1.16,1.406,1.406,0,0,0-.584-1.409.965.965,0,0,1,0-1.641Zm3.973,3.3A2.483,2.483,0,1,0,16.54,10.9,2.486,2.486,0,0,0,19.023,13.385Zm0-4.493a2.01,2.01,0,1,1-2.01,2.01,2.012,2.012,0,0,1,2.01-2.01ZM16.9,26.663a2.124,2.124,0,1,0,2.124-2.124A2.126,2.126,0,0,0,16.9,26.663Zm3.774,0a1.651,1.651,0,1,1-1.651-1.651A1.652,1.652,0,0,1,20.674,26.663ZM8.067,24.776V28.55a.237.237,0,0,0,.237.237h3.774a.237.237,0,0,0,.237-.237V24.776a.237.237,0,0,0-.237-.237H8.3a.237.237,0,0,0-.237.237Zm.473.237h3.3v3.3H8.54Zm22.065,3.165-2.32-4.018a.964.964,0,0,0-.62-.467V20.866a.237.237,0,0,0-.237-.237H19.26v-2.8a.237.237,0,0,0-.473,0v2.8h-8.6a.237.237,0,0,0-.237.237v2.8H8.242a1.051,1.051,0,0,0-1.05,1.05v3.9a1.051,1.051,0,0,0,1.05,1.05h3.9a1.051,1.051,0,0,0,1.05-1.05v-3.9a1.051,1.051,0,0,0-1.05-1.05H10.427V21.1h8.359v2.572a3,3,0,1,0,.473,0V21.1h7.932v2.59a.964.964,0,0,0-.62.467l-2.32,4.018a.989.989,0,0,0,.857,1.484h4.639a.989.989,0,0,0,.857-1.484Zm-17.89-3.463v3.9a.577.577,0,0,1-.576.576h-3.9a.577.577,0,0,1-.576-.576v-3.9a.577.577,0,0,1,.576-.576h3.9a.577.577,0,0,1,.576.576Zm8.833,1.949a2.525,2.525,0,1,1-2.525-2.525A2.528,2.528,0,0,1,21.548,26.663ZM30.2,28.93a.5.5,0,0,1-.447.258H25.109a.516.516,0,0,1-.447-.774l2.32-4.018a.516.516,0,0,1,.894,0l2.32,4.018a.5.5,0,0,1,0,.516Zm-2.562-4.151a.237.237,0,0,0-.41,0l-2.109,3.653a.237.237,0,0,0,.2.355h4.218a.237.237,0,0,0,.2-.355l-2.109-3.653Zm-1.9,3.534,1.7-2.943,1.7,2.943h-3.4Z" transform="translate(-7.192 -5.999)" fill="#79b700"/>
</svg>
