<svg xmlns="http://www.w3.org/2000/svg" width="25.25" height="25.253" viewBox="0 0 25.25 25.253">
  <g id="Group_401" data-name="Group 401" transform="translate(-0.029)">
    <path id="Path_972" data-name="Path 972" d="M25.279,12.626A12.364,12.364,0,0,0,23.15,5.7a2.049,2.049,0,0,0-.095-2.792l-.688-.688a2.046,2.046,0,0,0-2.792-.1,12.316,12.316,0,0,0-13.844,0,2.046,2.046,0,0,0-2.792.1l-.688.688A2.048,2.048,0,0,0,2.158,5.7a12.319,12.319,0,0,0,0,13.846,2.048,2.048,0,0,0,.095,2.792l.688.688a2.046,2.046,0,0,0,2.792.095,12.315,12.315,0,0,0,13.844,0,2.046,2.046,0,0,0,2.792-.095l.688-.688a2.048,2.048,0,0,0,.095-2.792A12.364,12.364,0,0,0,25.279,12.626Zm-2.839,6.207-3.5-3.5a2.072,2.072,0,0,0-.255-.217,6.079,6.079,0,0,0,0-4.973,2.068,2.068,0,0,0,.255-.217l3.5-3.5a11.3,11.3,0,0,1,0,12.414Zm-7.083-2.815a2.044,2.044,0,0,0-.58,1.72,5.134,5.134,0,0,1-4.247,0,2.044,2.044,0,0,0-.58-1.72l-.688-.688a2.032,2.032,0,0,0-1.447-.6,2.083,2.083,0,0,0-.274.018,5.136,5.136,0,0,1,0-4.245,2.075,2.075,0,0,0,.274.018,2.033,2.033,0,0,0,1.447-.6l.688-.688h0a2.044,2.044,0,0,0,.58-1.72,5.134,5.134,0,0,1,4.247,0,2.044,2.044,0,0,0,.58,1.72l.688.688a2.032,2.032,0,0,0,1.447.6,2.075,2.075,0,0,0,.274-.018,5.136,5.136,0,0,1,0,4.245,2.075,2.075,0,0,0-.274-.018,2.032,2.032,0,0,0-1.447.6ZM20.921,2.612a1.052,1.052,0,0,1,.749.31l.688.688a1.061,1.061,0,0,1,0,1.5L18.24,9.225a1.059,1.059,0,0,1-1.5,0l-.688-.688a1.061,1.061,0,0,1,0-1.5l4.117-4.118A1.053,1.053,0,0,1,20.921,2.612Zm-2.061.227-3.5,3.5a2.053,2.053,0,0,0-.217.255,6.077,6.077,0,0,0-4.973,0,2.053,2.053,0,0,0-.217-.255l-3.5-3.5a11.294,11.294,0,0,1,12.412,0Zm-15.91.771.688-.688a1.059,1.059,0,0,1,1.5,0L9.253,7.04a1.061,1.061,0,0,1,0,1.5h0l-.688.688a1.059,1.059,0,0,1-1.5,0L2.951,5.107a1.06,1.06,0,0,1,0-1.5ZM2.868,6.42l3.5,3.5a2.072,2.072,0,0,0,.255.217,6.079,6.079,0,0,0,0,4.973,2.068,2.068,0,0,0-.255.217l-3.5,3.5a11.3,11.3,0,0,1,0-12.414ZM6.434,22.4l.158-.164a.493.493,0,1,0-.711-.684l-.747.777a1.059,1.059,0,0,1-1.5,0l-.688-.688a1.061,1.061,0,0,1,0-1.5l4.117-4.118a1.059,1.059,0,0,1,1.5,0l.688.688a1.06,1.06,0,0,1,0,1.5l-.319.319a.493.493,0,0,0,.7.7l.319-.319a2.053,2.053,0,0,0,.217-.255,6.077,6.077,0,0,0,4.973,0,2.053,2.053,0,0,0,.217.255l3.5,3.5A11.294,11.294,0,0,1,6.434,22.4Zm15.924-.761-.688.688a1.059,1.059,0,0,1-1.5,0l-4.117-4.118a1.061,1.061,0,0,1,0-1.5l.688-.688a1.059,1.059,0,0,1,1.5,0l4.117,4.118A1.061,1.061,0,0,1,22.358,21.644Z" transform="translate(0)" fill="#91c42f"/>
    <path id="Path_973" data-name="Path 973" d="M148.214,403.176a.493.493,0,1,1,.483-.4A.5.5,0,0,1,148.214,403.176Z" transform="translate(-140.408 -382.354)" fill="#91c42f"/>
  </g>
</svg>
