<svg xmlns="http://www.w3.org/2000/svg" width="16.842" height="21.956" viewBox="0 0 16.842 21.956">
  <path id="Path_964" data-name="Path 964" d="M15.246,16.492a1.617,1.617,0,0,1,.672,1.621,2.42,2.42,0,0,0,.669,2.261,2.458,2.458,0,0,0,.74.519l-2.265,4.8a.406.406,0,0,0,.489.561l2.416-.755,1.177,2.241a.406.406,0,0,0,.36.217h.029a.407.407,0,0,0,.354-.269l1.784-4.995a2.6,2.6,0,0,0,1.761-.007l1.791,4.994a.406.406,0,0,0,.354.268H25.6a.406.406,0,0,0,.36-.218l1.174-2.242,2.417.752a.406.406,0,0,0,.488-.562l-2.27-4.793a2.466,2.466,0,0,0,.722-.51,2.419,2.419,0,0,0,.668-2.261,1.617,1.617,0,0,1,.672-1.621,2.469,2.469,0,0,0,0-4.143,1.618,1.618,0,0,1-.672-1.621,2.469,2.469,0,0,0-2.93-2.93,1.617,1.617,0,0,1-1.621-.672,2.469,2.469,0,0,0-4.144,0,1.618,1.618,0,0,1-1.621.672,2.469,2.469,0,0,0-2.93,2.93,1.618,1.618,0,0,1-.672,1.621,2.468,2.468,0,0,0,0,4.143ZM19.432,26.54l-.9-1.721a.406.406,0,0,0-.481-.2l-1.855.58,1.942-4.115a3.118,3.118,0,0,0,.713-.042,1.617,1.617,0,0,1,1.621.672,3.1,3.1,0,0,0,.491.548Zm9.481-1.352-1.856-.577a.406.406,0,0,0-.481.2l-.9,1.722-1.536-4.283a3.124,3.124,0,0,0,.475-.534,1.618,1.618,0,0,1,1.621-.672,3.106,3.106,0,0,0,.735.041l1.944,4.1Zm-13.2-12.177a2.414,2.414,0,0,0,1-2.42A1.658,1.658,0,0,1,18.712,8.6a2.415,2.415,0,0,0,2.42-1,1.658,1.658,0,0,1,2.818,0,2.414,2.414,0,0,0,2.42,1,1.658,1.658,0,0,1,1.993,1.993,2.415,2.415,0,0,0,1,2.42,1.658,1.658,0,0,1,0,2.818,2.414,2.414,0,0,0-1,2.42,1.658,1.658,0,0,1-1.993,1.993,2.414,2.414,0,0,0-2.42,1,1.658,1.658,0,0,1-2.818,0A2.406,2.406,0,0,0,19.147,20.2a2.6,2.6,0,0,0-.435.037,1.658,1.658,0,0,1-1.993-1.993,2.414,2.414,0,0,0-1-2.42,1.658,1.658,0,0,1,0-2.818Zm6.824,5.674a4.265,4.265,0,1,0-4.265-4.265A4.27,4.27,0,0,0,22.541,18.685Zm0-7.717a3.452,3.452,0,1,1-3.452,3.452,3.456,3.456,0,0,1,3.452-3.452Z" transform="translate(-14.12 -5.999)" fill="#79b700"/>
</svg>
