<svg xmlns="http://www.w3.org/2000/svg" width="22" height="14.903" viewBox="0 0 22 14.903">
  <path id="Path_755" data-name="Path 755" d="M21.819,90.027l-3.7-3.82a.644.644,0,0,0-.463-.2H15.3V83.23a.645.645,0,0,0-.645-.645H2.679a.645.645,0,0,0-.645.645v1.934H1.547a.645.645,0,0,0,0,1.289h.488v1.29H.645a.645.645,0,0,0,0,1.289h1.39v5.919a.645.645,0,0,0,.645.645H4.051a2.662,2.662,0,0,0,5.1.007H15.3a2.661,2.661,0,0,0,5.091,0h.963A.645.645,0,0,0,22,94.958V90.475A.645.645,0,0,0,21.819,90.027Zm-1.984-.2H15.277V87.3h2.108Zm-16.511-.8H6.679a.645.645,0,1,0,0-1.289H3.324v-1.29H7.151a.645.645,0,0,0,0-1.289H3.324v-1.29H14.006l-.018,10.439H9.213a2.662,2.662,0,0,0-5.223-.007H3.324ZM7.572,95.8a1.373,1.373,0,1,1,0-1.942A1.364,1.364,0,0,1,7.572,95.8Zm11.246,0a1.373,1.373,0,1,1,.4-.971,1.364,1.364,0,0,1-.4.971Zm1.641-1.483a2.66,2.66,0,0,0-5.182-.177V91.12h5.434v3.194Z" transform="translate(0 -82.585)" fill="#699a00"/>
</svg>
